<svg id="visual" viewBox="0 0 675 900" width="675" height="900" xmlns="http://www.w3.org/2000/svg" xmlns:xlink="http://www.w3.org/1999/xlink" version="1.1"><rect x="0" y="0" width="675" height="900" fill="#f5f5f5"></rect><path d="M0 431L28.2 411.3C56.3 391.7 112.7 352.3 169 372.5C225.3 392.7 281.7 472.3 337.8 492C394 511.7 450 471.3 506.2 463.7C562.3 456 618.7 481 646.8 493.5L675 506L675 901L646.8 901C618.7 901 562.3 901 506.2 901C450 901 394 901 337.8 901C281.7 901 225.3 901 169 901C112.7 901 56.3 901 28.2 901L0 901Z" fill="#d8d8d8" stroke-linecap="round" stroke-linejoin="miter"></path></svg>