<svg id="visual" viewBox="0 0 900 900" width="900" height="900" xmlns="http://www.w3.org/2000/svg" xmlns:xlink="http://www.w3.org/1999/xlink" version="1.1"><rect x="0" y="0" width="900" height="900" fill="#333"></rect><path d="M0 431L37.5 411.3C75 391.7 150 352.3 225 372.5C300 392.7 375 472.3 450 492C525 511.7 600 471.3 675 463.7C750 456 825 481 862.5 493.5L900 506L900 901L862.5 901C825 901 750 901 675 901C600 901 525 901 450 901C375 901 300 901 225 901C150 901 75 901 37.5 901L0 901Z" fill="#444" stroke-linecap="round" stroke-linejoin="miter"></path></svg>